<?xml version="1.0" encoding="UTF-8" standalone="no"?>
<svg
   viewBox="0 0 77.6 89.6"
   version="1.1"
   id="svg7"
   sodipodi:docname="windchil-icon-logo-1.svg"
   inkscape:version="1.3 (0e150ed6c4, 2023-07-21)"
   xmlns:inkscape="http://www.inkscape.org/namespaces/inkscape"
   xmlns:sodipodi="http://sodipodi.sourceforge.net/DTD/sodipodi-0.dtd"
   xmlns="http://www.w3.org/2000/svg"
   xmlns:svg="http://www.w3.org/2000/svg">
  <sodipodi:namedview
     id="namedview7"
     pagecolor="#ffffff"
     bordercolor="#000000"
     borderopacity="0.25"
     inkscape:showpageshadow="2"
     inkscape:pageopacity="0.0"
     inkscape:pagecheckerboard="0"
     inkscape:deskcolor="#d1d1d1"
     inkscape:zoom="9.6093752"
     inkscape:cx="38.81626"
     inkscape:cy="44.799999"
     inkscape:window-width="1920"
     inkscape:window-height="1057"
     inkscape:window-x="-8"
     inkscape:window-y="-8"
     inkscape:window-maximized="1"
     inkscape:current-layer="Layer_2" />
  <defs
     id="defs1">
    <style
       id="style1">.cls-1{fill:#fdfefe;}.cls-2{fill:#70bf4d;}</style>
  </defs>
  <g
     id="Layer_2"
     data-name="Layer 2">
    <g
       id="Layer_1-2"
       data-name="Layer 1">
      <polygon
         class="cls-1"
         points="54.5 28.88 54.5 9.06 38.8 0 21.65 9.9 54.5 28.88"
         id="polygon1"
         style="fill:#3B4550" />
      <polygon
         class="cls-1"
         points="60.44 50.45 77.6 40.54 77.6 22.4 60.44 12.49 60.44 50.45"
         id="polygon2"
         style="fill:#3B4550" />
      <polygon
         class="cls-1"
         points="23.09 60.78 23.09 80.55 38.8 89.61 55.91 79.74 23.09 60.78"
         id="polygon3"
         style="fill:#3B4550" />
      <polygon
         class="cls-1"
         points="44.71 66.4 61.85 76.3 77.6 67.2 77.6 47.4 44.71 66.4"
         id="polygon4"
         style="fill:#3B4550" />
      <polygon
         class="cls-1"
         points="32.84 23.23 15.71 13.33 0 22.4 0 42.21 32.84 23.23"
         id="polygon5"
         style="fill:#4d4d4d" />
      <polygon
         class="cls-1"
         points="17.16 39.15 0 49.07 0 67.2 17.16 77.11 17.16 39.15"
         id="polygon6"
         inkscape:label="polygon6"
         style="fill:#4d4d4d" />
      <polygon
         class="cls-2"
         points="54.5 53.87 38.8 62.94 23.09 53.87 23.09 35.74 38.8 26.67 54.5 35.74 54.5 53.87"
         id="polygon7" />
    </g>
  </g>
</svg>
